<svg xmlns="http://www.w3.org/2000/svg" xmlns:xlink="http://www.w3.org/1999/xlink" version="1.1" width="300" height="600" viewBox="0 0 300 600" xml:space="preserve">
<desc>Created with Fabric.js 3.5.0</desc>
<defs>
</defs>
<rect x="0" y="0" width="100%" height="100%" fill="rgba(255,255,255,0)"/>
<g transform="matrix(0.2697 0.0579 -0.0579 0.2697 228.5307 299.9859)" id="726468">
<path style="stroke: none; stroke-width: 1; stroke-dasharray: none; stroke-linecap: butt; stroke-dashoffset: 0; stroke-linejoin: miter; stroke-miterlimit: 4; is-custom-font: none; font-file-url: none; fill: rgb(89,50,13); fill-rule: nonzero; opacity: 1;" vector-effect="non-scaling-stroke" transform=" translate(-256, -256)" d="M 512 440.1 C 512 479.9 479.7 512 439.1 512 H 71.92 C 32.17 512 0 479.8 0 440 c 0 -35.88 26.19 -65.35 60.56 -70.85 C 43.31 356 32 335.4 32 312 C 32 272.2 64.25 240 104 240 h 13.99 C 104.5 228.2 96 211.2 96 192 c 0 -35.38 28.56 -64 63.94 -64 h 16 C 220.1 128 256 92.12 256 48 c 0 -17.38 -5.784 -33.35 -15.16 -46.47 C 245.8 0.7754 250.9 0 256 0 c 53 0 96 43 96 96 c 0 11.25 -2.288 22 -5.913 32 h 5.879 C 387.3 128 416 156.6 416 192 c 0 19.25 -8.59 36.25 -22.09 48 H 408 C 447.8 240 480 272.2 480 312 c 0 23.38 -11.38 44.01 -28.63 57.14 C 485.7 374.6 512 404.3 512 440.1 z" stroke-linecap="round"/>
</g>
<g transform="matrix(8.3021 -1.78 1.78 8.3021 107.9864 299.9998)" id="102980">
<g style="" vector-effect="non-scaling-stroke">
		<g transform="matrix(1 0 0 1 -1 1.5)">
<path style="stroke: none; stroke-width: 1; stroke-dasharray: none; stroke-linecap: butt; stroke-dashoffset: 0; stroke-linejoin: miter; stroke-miterlimit: 4; is-custom-font: none; font-file-url: none; fill: rgb(241,196,15); fill-rule: nonzero; opacity: 1;" transform=" translate(-11, -1041.9)" d="m 4 1033.4 v 15 c 0 1.1 0.8954 2 2 2 h 10 c 1.105 0 2 -0.9 2 -2 v -15 h -14 z" stroke-linecap="round"/>
</g>
		<g transform="matrix(1 0 0 1 -1 0.5)">
<path style="stroke: none; stroke-width: 1; stroke-dasharray: none; stroke-linecap: butt; stroke-dashoffset: 0; stroke-linejoin: miter; stroke-miterlimit: 4; is-custom-font: none; font-file-url: none; fill: rgb(243,156,18); fill-rule: nonzero; opacity: 1;" transform=" translate(-11, -1040.9)" d="m 4 1031.4 v 2 v 15 c 0 1.1 0.8954 2 2 2 h 10 c 1.105 0 2 -0.9 2 -2 v -15 v -2 h -1 v 2 v 15 c 0 0.5 -0.448 1 -1 1 h -10 c -0.5523 0 -1 -0.5 -1 -1 v -15 v -2 h -1 z" stroke-linecap="round"/>
</g>
		<g transform="matrix(1 0 0 1 8 0)">
<path style="stroke: none; stroke-width: 1; stroke-dasharray: none; stroke-linecap: butt; stroke-dashoffset: 0; stroke-linejoin: miter; stroke-miterlimit: 4; is-custom-font: none; font-file-url: none; fill: rgb(236,240,241); fill-rule: nonzero; opacity: 1;" transform=" translate(-20, -1040.4)" d="m 18 1034.4 v 0.7 v 0.3 v 1 h 1 c 0.552 0 1 0.4 1 1 v 3 v 3 c 0 0.5 -0.448 1 -1 1 h -1 v 1 v 0.2 v 0.8 h 2 c 1.105 0 2 -0.9 2 -2 v -2 v -2 v -2 v -2 c 0 -1.1 -0.895 -2 -2 -2 h -2 z" stroke-linecap="round"/>
</g>
		<g transform="matrix(1 0 0 1 8.5 0)">
<path style="stroke: none; stroke-width: 1; stroke-dasharray: none; stroke-linecap: butt; stroke-dashoffset: 0; stroke-linejoin: miter; stroke-miterlimit: 4; is-custom-font: none; font-file-url: none; fill: rgb(189,195,199); fill-rule: nonzero; opacity: 1;" transform=" translate(-20.5, -1040.4)" d="m 19 1034.4 c 1.105 0 2 0.9 2 2 v 2 v 2 v 2 v 2 c 0 1.1 -0.895 2 -2 2 h 1 c 1.105 0 2 -0.9 2 -2 v -2 v -2 v -2 v -2 c 0 -1.1 -0.895 -2 -2 -2 h -1 z" stroke-linecap="round"/>
</g>
		<g transform="matrix(1 0 0 1 -1 8.5)">
<path style="stroke: none; stroke-width: 1; stroke-dasharray: none; stroke-linecap: butt; stroke-dashoffset: 0; stroke-linejoin: miter; stroke-miterlimit: 4; is-custom-font: none; font-file-url: none; fill: rgb(230,126,34); fill-rule: nonzero; opacity: 1;" transform=" translate(-11, -1048.9)" d="m 4 1047.4 v 1 c 0 1.1 0.8954 2 2 2 h 10 c 1.105 0 2 -0.9 2 -2 v -1 c 0 1.1 -0.895 2 -2 2 h -10 c -1.1046 0 -2 -0.9 -2 -2 z" stroke-linecap="round"/>
</g>
		<g transform="matrix(1 0 0 1 -7.5 -7.5)">
<rect style="stroke: none; stroke-width: 1; stroke-dasharray: none; stroke-linecap: butt; stroke-dashoffset: 0; stroke-linejoin: miter; stroke-miterlimit: 4; is-custom-font: none; font-file-url: none; fill: rgb(189,195,199); fill-rule: nonzero; opacity: 1;" x="-0.5" y="-2.5" rx="0" ry="0" width="1" height="5"/>
</g>
		<g transform="matrix(1 0 0 1 5.5 -8)">
<rect style="stroke: none; stroke-width: 1; stroke-dasharray: none; stroke-linecap: butt; stroke-dashoffset: 0; stroke-linejoin: miter; stroke-miterlimit: 4; is-custom-font: none; font-file-url: none; fill: rgb(189,195,199); fill-rule: nonzero; opacity: 1;" x="-0.5" y="-2" rx="0" ry="0" width="1" height="4"/>
</g>
		<g transform="matrix(1 0 0 1 -1.5 1.5)">
<path style="stroke: none; stroke-width: 1; stroke-dasharray: none; stroke-linecap: butt; stroke-dashoffset: 0; stroke-linejoin: miter; stroke-miterlimit: 4; is-custom-font: none; font-file-url: none; fill: rgb(243,156,18); fill-rule: nonzero; opacity: 1;" transform=" translate(-10.5, -1041.9)" d="m 7 1035.4 c -0.5523 0 -1 0.4 -1 1 v 11 c 0 0.5 0.4477 1 1 1 v -1 v -11 v -1 z m 4 0 c -0.552 0 -1 0.4 -1 1 v 11 c 0 0.5 0.448 1 1 1 v -1 v -11 v -1 z m 4 0 c -0.552 0 -1 0.4 -1 1 v 11 c 0 0.5 0.448 1 1 1 v -1 v -11 v -1 z" stroke-linecap="round"/>
</g>
		<g transform="matrix(1 0 0 1 -1 -6.7)">
<path style="stroke: none; stroke-width: 1; stroke-dasharray: none; stroke-linecap: butt; stroke-dashoffset: 0; stroke-linejoin: miter; stroke-miterlimit: 4; is-custom-font: none; font-file-url: none; fill: rgb(236,240,241); fill-rule: nonzero; opacity: 1;" transform=" translate(-11, -1033.7)" d="m 5 1031.4 v 0.3 v 1.7 v 2.4 c 0.2125 0.1 0.4599 0.2 0.7188 0.2 c 0.7007 0 1.2727 -0.5 1.4374 -1.2 c 0.1722 0.1 0.3658 0.2 0.5626 0.2 c 0.1829 0 0.3691 -0.1 0.5312 -0.1 c -0.0035 0 -0.0312 0 -0.0312 0.1 c 0 0.5 0.4477 1 1 1 c 0.2515 0 0.4805 -0.1 0.6562 -0.3 c 0.239 0.2 0.533 0.3 0.844 0.3 c 0.666 0 1.21 -0.5 1.406 -1.1 c 0.034 0 0.059 0.1 0.094 0.1 c 0.552 0 1 -0.5 1 -1 c 0 0.5 0.447 1 1 1 c 0.552 0 1 -0.5 1 -1 h 0.093 c 0.204 0.5 0.751 1 1.407 1 c 0.098 0 0.189 -0.1 0.281 -0.1 v -1.5 v -1.7 v -0.3 h -12 z" stroke-linecap="round"/>
</g>
</g>
</g>
</svg>