<svg xmlns="http://www.w3.org/2000/svg" xmlns:xlink="http://www.w3.org/1999/xlink" version="1.1" width="170" height="36" viewBox="0 0 170 36" xml:space="preserve">
<desc>Created with Fabric.js 3.5.0</desc>
<defs>
</defs>
<rect x="0" y="0" width="100%" height="100%" fill="#ffffff"/>
<g transform="matrix(1 0 0 1 101.239 20.3088)" style="" id="700590">
		
<path xml:space="preserve" font-family="Black Han Sans" font-size="33" font-style="normal" font-weight="normal" style="stroke: none; stroke-width: 1; stroke-dasharray: none; stroke-linecap: butt; stroke-dashoffset: 0; stroke-linejoin: miter; stroke-miterlimit: 4; is-custom-font: none; font-file-url: none; fill: rgb(255,255,255); fill-rule: nonzero; opacity: 1; white-space: pre;" d="M-61.18 9.94L-61.18 9.94L-60.06 3.40Q-56.43 4.29-53.49 4.29L-53.49 4.29Q-52.01 4.29-50.87 4.25Q-49.73 4.20-48.84 4.06L-48.84 4.06L-48.84 2.08L-52.40 1.79Q-54.81 1.56-56.43 0.99Q-58.05 0.43-59.02-0.54Q-59.99-1.51-60.41-2.88Q-60.82-4.25-60.82-6.10L-60.82-6.10Q-60.82-8.64-60.29-10.34Q-59.76-12.04-58.61-13.08Q-57.45-14.12-55.62-14.55Q-53.79-14.98-51.15-14.98L-51.15-14.98Q-45.90-14.98-41.65-13.99L-41.65-13.99L-42.64-7.65Q-46.33-8.25-48.54-8.25L-48.54-8.25Q-50.75-8.25-52.30-8.05L-52.30-8.05L-52.30-6.10L-49.47-5.84Q-46.86-5.57-45.11-4.96Q-43.36-4.35-42.29-3.36Q-41.22-2.37-40.77-1.02Q-40.33 0.33-40.33 2.08L-40.33 2.08Q-40.33 4.59-40.99 6.31Q-41.65 8.02-42.57 8.91L-42.57 8.91Q-43.33 9.64-44.45 10.05Q-45.57 10.47-46.83 10.66Q-48.08 10.86-49.35 10.91Q-50.62 10.96-51.64 10.96L-51.64 10.96Q-54.22 10.96-56.59 10.70Q-58.97 10.43-61.18 9.94ZM-29.44-1.84L-29.44-1.84L-29.44 10.37L-37.36 10.37L-37.36-15.37L-29.44-15.97L-29.44-8.71Q-26.89-10.03-23.83-10.03L-23.83-10.03Q-20.72-10.03-19.14-8.82Q-17.56-7.62-17.56-5.47L-17.56-5.47L-17.56 10.37L-25.48 10.37L-25.48-3.49L-26.70-3.49Q-28.15-3.49-28.79-3.20Q-29.44-2.90-29.44-1.84ZM-5.87-9.43L-5.87 10.37L-13.79 10.37L-13.79-8.44L-5.87-9.43ZM-14.22-13.16L-14.22-13.16Q-14.22-14.05-14.02-14.66Q-13.83-15.27-13.33-15.65Q-12.84-16.03-11.98-16.20Q-11.12-16.36-9.80-16.36L-9.80-16.36Q-8.48-16.36-7.64-16.20Q-6.80-16.03-6.30-15.65Q-5.81-15.27-5.61-14.66Q-5.41-14.05-5.41-13.16L-5.41-13.16Q-5.41-12.27-5.61-11.68Q-5.81-11.08-6.30-10.70Q-6.80-10.32-7.64-10.18Q-8.48-10.03-9.80-10.03L-9.80-10.03Q-10.76-10.03-11.57-10.09Q-12.37-10.16-12.97-10.47Q-13.56-10.79-13.89-11.41Q-14.22-12.04-14.22-13.16ZM-1.12 6.64L-1.12-4.32L-3.10-4.32L-3.10-9.43L-1.12-9.43L-1.12-12.60L6.80-14.58L6.80-9.43L9.54-9.43L9.54-4.32L6.80-4.32L6.80 4.69Q7.29 4.79 7.89 4.87Q8.48 4.95 9.14 4.99L9.14 4.99L8.78 10.80Q3.37 10.80 1.72 10.20L1.72 10.20Q0.33 9.71-0.40 8.93Q-1.12 8.16-1.12 6.64L-1.12 6.64ZM13.30 6.64L13.30-4.32L11.32-4.32L11.32-9.43L13.30-9.43L13.30-12.60L21.22-14.58L21.22-9.43L23.96-9.43L23.96-4.32L21.22-4.32L21.22 4.69Q21.71 4.79 22.31 4.87Q22.90 4.95 23.56 4.99L23.56 4.99L23.20 10.80Q17.79 10.80 16.14 10.20L16.14 10.20Q14.75 9.71 14.03 8.93Q13.30 8.16 13.30 6.64L13.30 6.64ZM34.65 3.63L34.65 3.63L34.65 5.02Q35.24 5.09 35.84 5.12Q36.43 5.15 37.03 5.15L37.03 5.15Q40.72 5.15 44.48 3.96L44.48 3.96L45.41 9.77Q40.95 10.96 36.63 10.96L36.63 10.96Q31.09 10.96 28.61 8.37Q26.14 5.78 26.14 0.47L26.14 0.47Q26.14-4.85 28.63-7.44Q31.12-10.03 36.63-10.03L36.63-10.03Q39.40-10.03 41.25-9.68Q43.10-9.33 44.24-8.53Q45.38-7.72 45.85-6.35Q46.33-4.98 46.33-2.90L46.33-2.90Q46.33-1.18 45.75 0.05Q45.18 1.29 43.82 2.08Q42.47 2.88 40.23 3.26Q37.98 3.63 34.65 3.63ZM34.65-2.57L34.65-2.57L34.65-0.95L36.27-0.95Q37.72-0.95 38.36-1.25Q39.01-1.55 39.01-2.64L39.01-2.64L39.01-4.25L37.39-4.25Q35.94-4.25 35.29-3.96Q34.65-3.66 34.65-2.57ZM57.22 10.37L49.30 10.37L49.30-9.43L53.26-9.43L55.44-7.22Q57.82-9.40 61.31-10.03L61.31-10.03L61.78-2.54Q61.31-2.54 60.65-2.40Q59.99-2.27 59.32-2.07Q58.64-1.88 58.08-1.60Q57.52-1.32 57.22-0.95L57.22-0.95L57.22 10.37Z"/></g>
<g transform="matrix(0.0492 0 0 0.0492 19.6619 17.9952)" id="59531">
<path style="stroke: none; stroke-width: 1; stroke-dasharray: none; stroke-linecap: butt; stroke-dashoffset: 0; stroke-linejoin: miter; stroke-miterlimit: 4; is-custom-font: none; font-file-url: none; fill: rgb(100,63,13); fill-rule: nonzero; opacity: 1;" vector-effect="non-scaling-stroke" transform=" translate(-256, -256)" d="M 512 440.1 C 512 479.9 479.7 512 439.1 512 H 71.92 C 32.17 512 0 479.8 0 440 c 0 -35.88 26.19 -65.35 60.56 -70.85 C 43.31 356 32 335.4 32 312 C 32 272.2 64.25 240 104 240 h 13.99 C 104.5 228.2 96 211.2 96 192 c 0 -35.38 28.56 -64 63.94 -64 h 16 C 220.1 128 256 92.12 256 48 c 0 -17.38 -5.784 -33.35 -15.16 -46.47 C 245.8 0.7754 250.9 0 256 0 c 53 0 96 43 96 96 c 0 11.25 -2.288 22 -5.913 32 h 5.879 C 387.3 128 416 156.6 416 192 c 0 19.25 -8.59 36.25 -22.09 48 H 408 C 447.8 240 480 272.2 480 312 c 0 23.38 -11.38 44.01 -28.63 57.14 C 485.7 374.6 512 404.3 512 440.1 z" stroke-linecap="round"/>
</g>
</svg>